# xmcd
#
# Track frame offsets:
# 150
# 14334
# 30431
# 50558
# 64748
# 76488
# 89996
# 104575
# 120746
# 131642
# 140032
# 163064
# 170217
#
# Disc length: 2441 seconds
#
#
# Revision: 0
# Processed by: cddbd v1.5.2PL0 Copyright (c) Steve Scherf et al.
# Submitted via: FreeRIP 2.951 
#
DISCID=c109870d
DTITLE=Lee Hazelwood - Cake or Death
DYEAR=2006
DGENRE=Pop
TTITLE0=01 Nothing
TTITLE1=02 Baghdad Knights
TTITLE2=03 Please Come to Boston
TTITLE3=04 She's Gonna Break Some Heart Tonight
TTITLE4=05 Sacrifice
TTITLE5=06 Fred Freud
TTITLE6=07 First Song of the Day
TTITLE7=08 It's NothiMe
TTITLE8=09 Anthem
TTITLE9=10 White People Thing
TTITLE10=11 Boots
TTITLE11=12 Some Velvet orning
TTITLE12=13 T.O.M. (The Old Man)
EXTD=
EXTT0=
EXTT1=
EXTT2=
EXTT3=
EXTT4=
EXTT5=
EXTT6=
EXTT7=
EXTT8=
EXTT9=
EXTT10=
EXTT11=
EXTT12=
PLAYORDER=
